# xmcd
#
# Track frame offsets:
#	150
#	10066
#	23354
#	36561
#	50356
#	64588
#	78279
#	94140
#	107741
#	123086
#	135688
#	151080
#	161789
#	178305
#	191806
#	203600
#	216942
#	232778
#	248566
#	261460
#
# Disc length: 3664 seconds
#
# Revision: 0
# Processed by: cddbd v1.5.2PL0 Copyright (c) Steve Scherf et al.
# Submitted via: EZCDAudioConverter 2.1.5.1
#
DISCID=070e4e14
DTITLE=Various Artist - Country Dansband
DYEAR=2016
DGENRE=Country/Dansband
TTITLE0=Fernandoz - Honk If You Honky Tonk
TTITLE1=Drifters - Stand By Your Man
TTITLE2=Sannex - You Shook Me All Night Long
TTITLE3=Larz-Kristerz - Du Lovar Och Du Svär
TTITLE4=Elisa's - Rose Garden
TTITLE5=Jill Johnson - Crazy In Love (original edit)
TTITLE6=Kindbergs - Min Mustang
TTITLE7=Kikki Danielsson - Good Life
TTITLE8=Lasse Sigfridsson - En Flicka Från Igår
TTITLE9=Jenny Saléns - Countryjänta
TTITLE10=Mats Rådberg - Peta In En Pinne I Brasan (nyinspelning)
TTITLE11=Donnez - Think Of Me
TTITLE12=Matz Bladhs - Jag Lämnar Staden Nu I Natt
TTITLE13=Mona G - Nå'n Borde Säga
TTITLE14=Playtones - Heartaches By The Number
TTITLE15=Framed - Cotton Fields
TTITLE16=Martinez - Buy Me A Rose
TTITLE17=Casanovas and Monia Sjöström - Heart Breaking Down
TTITLE18=Jannez - You Can Promise Me This
TTITLE19=Christina Lindberg - I've Got Shoes
EXTD=
EXTT0=
EXTT1=
EXTT2=
EXTT3=
EXTT4=
EXTT5=
EXTT6=
EXTT7=
EXTT8=
EXTT9=
EXTT10=
EXTT11=
EXTT12=
EXTT13=
EXTT14=
EXTT15=
EXTT16=
EXTT17=
EXTT18=
EXTT19=
PLAYORDER=
